PathFileType        4      (X/Y/Z)      C:\Users\pc\Desktop\IMUTRC\Sujet_08\Sujet_08_velo_100.trc         
DataRate	CameraRate	NumFrames	NumMarkers	Units	OrigDataRate	OrigDataStartFrame	OrigNumFrames
60.0	60.0	4	64	mm	60.0	816	932
Frame#	Time	pHipOrigin			pRightASI			pLeftASI			pRightCSI			pLeftCSI			pRightIschialTub			pLeftIschialTub			pSacrum			pL5SpinalProcess			pL3SpinalProcess			pT12SpinalProcess			pIJ			pT4SpinalProcess			pT8SpinalProcess			pPX			pC7SpinalProcess			pTopOfHead			pRightAuricularis			pLeftAuricularis			pBackOfHead			pRightAcromion			pLeftAcromion			pRightArmLatEpicondyle			pRightArmMedEpicondyle			pLeftArmLatEpicondyle			pLeftArmMedEpicondyle			pRightUlnarStyloid			pRightRadialStyloid			pRightOlecranon			pLeftUlnarStyloid			pLeftRadialStyloid			pLeftOlecranon			pRightTopOfHand			pRightPinky			pRightBallHand			pLeftTopOfHand			pLeftPinky			pLeftBallHand			pRightGreaterTrochanter			pRightKneeLatEpicondyle			pRightKneeMedEpicondyle			pRightPatella			pLeftGreaterTrochanter			pLeftKneeLatEpicondyle			pLeftKneeMedEpicondyle			pLeftPatella			pRightTibialTub			pRightLatMalleolus			pRightMedMalleolus			pLeftTibialTub			pLeftLatMalleolus			pLeftMedMalleolus			pRightHeelFoot			pRightFirstMetatarsal			pRightFifthMetatarsal			pRightPivotFoot			pRightHeelCenter			pRightToe			pLeftHeelFoot			pLeftFirstMetatarsal			pLeftFifthMetatarsal			pLeftPivotFoot			pLeftHeelCenter			pLeftToe			
		X1	Y1	Z1	X2	Y2	Z2	X3	Y3	Z3	X4	Y4	Z4	X5	Y5	Z5	X6	Y6	Z6	X7	Y7	Z7	X8	Y8	Z8	X9	Y9	Z9	X10	Y10	Z10	X11	Y11	Z11	X12	Y12	Z12	X13	Y13	Z13	X14	Y14	Z14	X15	Y15	Z15	X16	Y16	Z16	X17	Y17	Z17	X18	Y18	Z18	X19	Y19	Z19	X20	Y20	Z20	X21	Y21	Z21	X22	Y22	Z22	X23	Y23	Z23	X24	Y24	Z24	X25	Y25	Z25	X26	Y26	Z26	X27	Y27	Z27	X28	Y28	Z28	X29	Y29	Z29	X30	Y30	Z30	X31	Y31	Z31	X32	Y32	Z32	X33	Y33	Z33	X34	Y34	Z34	X35	Y35	Z35	X36	Y36	Z36	X37	Y37	Z37	X38	Y38	Z38	X39	Y39	Z39	X40	Y40	Z40	X41	Y41	Z41	X42	Y42	Z42	X43	Y43	Z43	X44	Y44	Z44	X45	Y45	Z45	X46	Y46	Z46	X47	Y47	Z47	X48	Y48	Z48	X49	Y49	Z49	X50	Y50	Z50	X51	Y51	Z51	X52	Y52	Z52	X53	Y53	Z53	X54	Y54	Z54	X55	Y55	Z55	X56	Y56	Z56	X57	Y57	Z57	X58	Y58	Z58	X59	Y59	Z59	X60	Y60	Z60	X61	Y61	Z61	X62	Y62	Z62	X63	Y63	Z63	X64	Y64	Z64	
816	13.583	0.0	1249.97582	7.653894434872941E-14	101.7425888771561	1314.93061	128.61210128557192	82.71362960153161	1328.34168	-134.77189824598565	79.41865433828228	1391.68068	110.7238068868184	63.665731618840525	1402.66806	-106.03855596556355	-65.0523559961127	1211.52	57.41657939022429	-72.93877527540658	1217.01369	-51.07842157751284	-55.32026324674804	1289.88585	6.1014870121142915	10.138348434568957	1371.48329	5.765037258732522	79.87089308561534	1463.09864	1.8433401125952613	143.6692240004441	1546.7966	-3.0501532126792674	390.3390757800046	1579.43558	-34.83838144358525	282.91245020758595	1674.44408	-18.673058082978525	215.27554865006644	1622.41562	-10.461788126332834	301.0324586981759	1504.46288	-23.92843600653938	322.58117919783456	1704.17463	-21.455484784458985	499.51997865567864	1864.94583	-55.859483498138275	477.1239189158272	1775.10785	14.56990317524622	431.0429514152461	1788.6805	-110.99834004586117	411.320090406451	1806.93893	-29.67788941725269	350.94881119316483	1648.75301	129.7474035116133	307.37820546386223	1650.20722	-180.80621729493302	462.6547284233194	1385.05594	138.89826882651874	441.3940192418249	1374.06856	82.03701119809114	405.76204858152386	1381.98593	-208.56693645639277	403.6713686246338	1375.68435	-147.25420551788736	564.0360038921997	1155.45205	136.22182845441958	606.8832944341126	1177.42681	117.3340828921534	429.85946650380174	1371.48329	121.92609686564015	528.4271488076482	1159.81469	-185.5798542779568	572.1520226814193	1187.28313	-182.63856649575843	381.2793291333349	1367.92855	-181.65191674379614	735.9312772067967	1084.0341	222.45429504780284	648.4476747587266	1084.84199	189.96657722945548	607.1135149640506	1127.66045	140.94009304805638	679.3918675459174	1070.29987	-290.08087900870333	603.1824768229708	1078.54041	-236.96392441549582	571.4194239895332	1132.99256	-192.3231290934727	10.203501739760824	1210.06579	157.26495450215324	189.1711371062897	857.50022	122.45407415306751	202.17151960616323	864.93285	46.88281229234507	232.7043359840155	882.54498	90.43163815509772	18.81463037345705	1247.39055	-161.17999396013224	395.4168650309015	1122.48992	-165.5705874983321	402.1085423464675	1121.03571	-89.08428465680605	409.6366393040217	1163.36943	-124.95276826500533	245.2728128758368	825.99229	87.26761966625234	140.90913549977185	460.17724	121.40070622044975	144.46522791837748	458.56145	61.10666157420931	423.5041294212342	1076.11672	-132.93273500207331	175.6654361553007	786.72858	-159.07542347417606	183.75870463896865	780.75015	-99.34180995580046	74.0851130479118	404.27088	85.15578086282476	211.9899180793812	342.87082	37.19267592868062	213.6423045781959	332.69134	111.13790727481229	231.8580259058392	328.81344	71.58182106953484	108.7258881197484	390.69823	82.58386873477203	303.21251197441177	293.75078	65.22442170019515	99.7436394503835	747.9496	-123.64591280187749	219.1776848365564	646.80109	-99.57332182544555	213.01665895707154	648.74004	-173.92693356418974	232.1534517709061	633.87476	-137.40938740724116	129.52435859733848	725.81326	-126.71015110536986	291.6949818861144	581.52314	-143.76549666944211	
817	13.6	0.0	1249.97582	7.653894434872941E-14	102.42549969855695	1314.2843	128.5523614285783	82.25835143534698	1328.82641	-134.7320665676936	79.91376418275894	1391.03436	111.139253374711	63.35414675292107	1403.15279	-105.66722358220605	-64.82471691302038	1211.19684	57.396663551078284	-73.14649209147679	1217.33684	-50.830874315718944	-55.17656994648286	1289.88585	6.432987717179757	10.405811535508866	1371.48329	6.200393157895041	80.13835618655526	1462.93706	2.278696011757778	143.81291730070927	1546.63502	-2.718652507613816	390.52688318480483	1579.43558	-35.31357544891587	282.89253436843995	1674.44408	-18.900697166070852	215.3993261111856	1622.25404	-10.357926504359682	301.136320320149	1504.46288	-24.052213467658554	322.5612633586885	1704.17463	-21.683123867551313	499.73199198631244	1864.62267	-57.36900486908121	477.4995337254278	1775.10785	13.619515164584948	430.8395105975429	1788.35734	-112.01275800020355	411.5719213270563	1806.93893	-30.732131389442717	352.04716850245825	1648.75301	129.19255381014304	307.02678891965076	1650.53038	-180.89016307776012	462.6547284233194	1384.5712	138.89826882651874	441.1862959978786	1373.58382	82.28456612032949	405.5543317654537	1381.98593	-208.31938919459887	403.35978375871446	1375.68435	-146.8828731345299	563.1652856659987	1154.48258	136.7567623167439	606.1164378298846	1176.45734	117.7452392933585	429.7556048818286	1371.16014	122.04987432675932	527.3088692313327	1159.49153	-185.25263599913433	571.2813044552181	1186.95998	-182.10363263343416	380.9478284282694	1368.09013	-181.50822344353094	734.9168656803304	1082.57989	222.65772820506155	647.4531803039747	1083.71094	190.3976635581271	606.2228744708274	1126.69098	141.2473954877327	678.149818168927	1069.49198	-289.8575159239779	602.0642036745313	1078.05567	-236.6367137971179	570.424928302213	1132.50782	-191.8920568531217	10.554918283972299	1209.90421	157.34890028498037	181.08003400190108	853.29916	123.04726320349984	193.27372179137848	859.76232	47.43188723824229	224.67727048375247	877.05129	90.44577800610234	19.41360183990686	1249.65266	-160.88832493335877	399.7533291871059	1136.38572	-163.1974152290364	405.65824171974236	1134.12361	-86.52758864152146	412.2117588291223	1177.26523	-121.73736092627736	234.63786992790557	819.20597	87.62460997641392	112.33491771032655	459.04619	122.52434448477194	115.76723266781306	457.10724	62.12643821655837	430.4242791875938	1090.982	-129.8680870588906	198.69240477222044	788.66753	-159.36967518036357	206.1027560066114	783.33542	-99.5763141445499	43.79365187614559	405.40193	86.31497480707199	179.89299051153156	339.1545	40.00079322488016	180.63482067797702	329.62134	114.02568792759588	198.97431946673947	324.61239	74.57346334429158	77.8952094268465	390.69823	84.13430324107834	269.0426408212183	287.28762	69.24610768175285	124.79942988766751	744.87959	-124.34704491090305	250.3754199144488	651.81004	-99.55020624969609	244.7934420018233	653.26425	-173.83979447263528	264.5092904429616	639.69161	-137.25821837200556	156.08967040556544	724.84379	-127.19926988376163	327.42126452337857	591.21788	-143.10636804586392	
818	13.617	0.0	1249.97582	7.653894434872941E-14	102.34156034360592	1313.31482	128.9037703123454	82.54573803587732	1329.47273	-134.06906515756268	80.09728916131616	1390.22647	111.92603224596111	63.88908061524532	1403.63753	-104.79650535600491	-65.0722718352587	1211.03526	57.188940307131986	-73.06255273652575	1217.66	-51.182283199485994	-55.15666176778127	1290.04743	6.66062037239598	10.569420674920059	1371.32171	6.759532946052824	80.44565862623162	1462.77548	3.169336504981037	144.4716286241527	1546.31187	-1.744072659439515	391.0618170471291	1578.62768	-34.44285722271478	283.7788924354201	1673.79777	-17.94602672916646	216.18181489574818	1621.93088	-9.279485034212257	301.5674066488206	1503.81657	-23.057719012906567	323.4476214256687	1703.52832	-20.728453430646947	500.8701733134535	1863.65319	-57.46858283224299	478.78141601327843	1774.29996	13.851444334364766	431.4583979031387	1787.22629	-111.49344989033781	412.64607913839234	1806.13104	-30.252661385745117	353.3688812360326	1647.94511	129.87974705778697	307.56172278197505	1650.20722	-180.01944485155906	463.085808324115	1383.44015	139.89277094171513	441.0582425383924	1372.29119	83.44266971449264	405.9854116662492	1381.5012	-207.3248870794025	404.01849508215787	1375.36119	-145.9082932863556	563.121163901019	1153.18995	137.5634505992639	605.9684621033763	1175.1647	118.67571146487374	429.8551764171142	1370.02908	123.18806331434479	527.512316476912	1158.84521	-184.23822570523637	571.4648294337753	1186.15208	-181.31685376218408	381.5026781297397	1367.6054	-180.4098661342375	735.0804748197414	1080.96409	223.21686799321932	647.4930184101429	1082.25673	190.85293406386737	606.1787603662923	1125.23676	142.05409019812885	678.0857946531221	1068.68408	-289.2784679571186	602.0200895699961	1077.24778	-235.8300190867218	570.484675819651	1131.69993	-191.20913960384468	10.67869574509146	1209.58105	157.4527619069535	180.4170390196462	852.49126	123.33464214358575	192.36317954732976	858.79285	47.511549362258	223.9943532344755	876.24339	90.50552552354037	20.467843812096874	1251.59161	-160.63649401275347	402.0367796854331	1142.52573	-159.38303642385864	407.03113588570034	1139.13257	-82.6335464797596	413.6444005125182	1182.75892	-117.16040151523855	231.55479847490687	815.65123	87.7796530307706	87.4470188386968	463.5704	122.52264350537459	90.77547217421015	461.46987	62.24851469828016	435.53895612999384	1097.76832	-125.15450810331119	221.3964387691292	783.65857	-162.04416525112686	226.88182980512903	778.64962	-101.96770127359426	17.020616823972297	413.15773	87.05164850770211	150.4238485700516	340.44714	42.693692717138944	150.3789075256914	332.36818	116.90211882628797	168.73832215359988	325.90502	77.67753332607599	50.35531777044522	396.99982	85.28213334291355	237.16907633809402	285.51025	73.29627435494268	149.38859363724373	735.50801	-127.75990200124942	279.939849732403	650.35583	-99.84295796610918	275.7237063183313	651.16372	-174.25204122392444	295.4793800098856	639.04529	-137.21517929666567	181.77291423349982	717.24957	-129.90502554776242	361.4061183686848	594.61104	-141.37736526976116	
819	13.633	0.0	1249.97582	7.653894434872941E-14	101.96594553400534	1312.34535	129.85415832300666	83.41217260326705	1330.11905	-133.34204023162673	79.86536641941242	1389.41857	113.20790687336734	64.69149932727444	1404.12227	-103.49042603533348	-65.23587331422547	1210.87368	56.629806946850294	-72.99852279284462	1218.14474	-51.76133882678978	-55.15666176778127	1290.04743	6.66062037239598	10.752945653477264	1371.32171	7.5463118173029216	81.020430594724	1462.6139	4.4953252369223735	145.19008746503414	1545.98871	-0.08657556198827392	392.027837238125	1577.49663	-32.577644541761615	284.9725517095083	1672.98987	-16.100729887359375	217.12791924759804	1621.28456	-7.641911436351464	302.1820038677289	1503.00867	-21.276444454336165	324.7451282334095	1702.55884	-19.006932817390673	502.31566350814694	1862.19898	-56.677527962625845	480.5982385913295	1773.00733	14.95408406990128	432.4884416099396	1785.77207	-110.20728517624411	414.2750943116431	1804.99999	-28.674827644877897	354.770257326191	1646.81406	131.47749663780016	308.87915951718236	1649.5609	-178.07028638777876	463.5766345097802	1381.98593	141.57017621786795	441.09379055787304	1370.6754	85.15990666893748	406.93150959022296	1380.85488	-205.68730582109725	405.06845462810475	1374.5533	-144.39448948916956	563.5522438018146	1151.73573	138.5579527144603	606.5233182327227	1173.71049	119.7740611137228	430.2222328021047	1368.41329	124.76161339640058	528.1909436395014	1158.03732	-183.03600677396983	572.2672340574841	1185.18261	-180.01077320894433	382.44878248158955	1366.95908	-178.77229253637668	735.803216086866	1079.3483	223.61239221408985	648.1318138944403	1080.64094	191.5998748289493	606.7137083169371	1123.94413	142.9248071917616	678.6207285154463	1067.87619	-288.40774973091743	602.5550375206409	1076.43988	-234.95930209308895	571.1633029822403	1130.89203	-190.00692067257805	11.030112289302934	1209.25789	157.53670768978066	186.2715970597243	854.91495	123.39588841822987	197.86631338275185	861.21654	47.48884342619886	229.37371726922288	879.15181	90.3789643933842	21.99728745006196	1252.88424	-160.19684925947178	402.9942337913744	1141.87941	-154.99389207806456	406.7266171150609	1137.3552	-78.24868456020867	414.08254650859385	1181.46629	-112.1523698638487	234.09864597889384	815.48965	88.01585819891746	65.62226792047535	474.3962	122.13825396065212	69.05459053840627	471.97251	61.74035412031464	438.78842039144075	1098.09148	-119.47490895673589	244.164496281843	772.6712	-165.2977032887495	247.249733114121	767.9854	-105.12594377429825	-7.248395974629965	427.05353	87.56924154984999	122.67195124346094	346.9103	45.351050617793234	122.29551715447971	340.93187	119.70317645508354	140.21956822278122	332.52976	80.74604762793535	25.44322063342639	409.27983	86.31476615700463	206.80501147714776	288.90341	77.55844916345858	173.7344913187008	720.31957	-132.6424628725672	308.2423207620969	643.40793	-100.13999334133366	306.07490857965945	643.40793	-174.72831025845028	325.5389196723164	632.74371	-137.09248452518614	207.25271081585484	704.00008	-133.62519150566123	393.9611077717561	592.18736	-138.94981183147848	
